<svg width="80" height="40" viewBox="0 0 80 40" fill="none" xmlns="http://www.w3.org/2000/svg">
<path d="M40.6801 11.96C41.1601 12.67 41.4401 13.52 41.4401 14.44C41.4301 16.84 39.5401 18.79 37.1601 18.87C37.0601 18.86 36.9401 18.86 36.8301 18.87C34.4501 18.79 32.5601 16.84 32.5601 14.44C32.5601 11.99 34.5401 10 37.0001 10" stroke="#B2ABAB" stroke-width="1.5" stroke-linecap="round" stroke-linejoin="round"/>
<path d="M44.4098 12C46.3498 12 47.9098 13.57 47.9098 15.5C47.9098 17.39 46.4098 18.93 44.5398 19C44.4598 18.99 44.3698 18.99 44.2798 19" stroke="#B2ABAB" stroke-width="1.5" stroke-linecap="round" stroke-linejoin="round"/>
<path d="M32.1602 22.56C29.7402 24.18 29.7402 26.82 32.1602 28.43C34.9102 30.27 39.4202 30.27 42.1702 28.43C44.5902 26.81 44.5902 24.17 42.1702 22.56C39.4302 20.73 34.9202 20.73 32.1602 22.56Z" stroke="#B2ABAB" stroke-width="1.5" stroke-linecap="round" stroke-linejoin="round"/>
<path d="M46.3398 28C47.0598 27.85 47.7398 27.56 48.2998 27.13C49.8598 25.96 49.8598 24.03 48.2998 22.86C47.7498 22.44 47.0798 22.16 46.3698 22" stroke="#B2ABAB" stroke-width="1.5" stroke-linecap="round" stroke-linejoin="round"/>
</svg>
